/* XPM */
static char * magacoin_main_128_xpm[] = {
"128 128 3 1",
" 	c None",
".	c #FFFFFF",
"+	c #DD0D0D",
"                                                                                                                                ",
"                                                                                                                                ",
"                                                                                                                                ",
"                                                                                                                                ",
"                                                                                                                                ",
"                                                                                                                                ",
"      ....................................................................................................................      ",
"      ....................................................................................................................      ",
"      ....................................................................................................................      ",
"      ....................................................................................................................      ",
"      ....................................................................................................................      ",
"      ....................................................................................................................      ",
"      ....................................................................................................................      ",
"      ....................................................................................................................      ",
"      ........++++++++++++++++++++++++++++++++++++++++++++++++++++++++++++++++........++++++++++++++++++++++++++++........      ",
"      ........++++++++++++++++++++++++++++++++++++++++++++++++++++++++++++++++........++++++++++++++++++++++++++++........      ",
"      ........++++++++++++++++++++++++++++++++++++++++++++++++++++++++++++++++........++++++++++++++++++++++++++++........      ",
"      ........++++++++++++++++++++++++++++++++++++++++++++++++++++++++++++++++........++++++++++++++++++++++++++++........      ",
"      ........++++++++++++++++++++++++++++++++++++++++++++++++++++++++++++++++........++++++++++++++++++++++++++++........      ",
"      ........++++++++++++++++++++++++++++++++++++++++++++++++++++++++++++++++........++++++++++++++++++++++++++++........      ",
"      ........++++++++++++++++++++++++++++++++++++++++++++++++++++++++++++++++........++++++++++++++++++++++++++++........      ",
"      ........++++++++++++++++++++++++++++++++++++++++++++++++++++++++++++++++........++++++++++++++++++++++++++++........      ",
"      ........++++++++++++++++++++++++++++++++++++++++++++++++++++++++++++++++........++++++++++++++++++++++++++++........      ",
"      ........++++++++++++++++++++++++++++++++++++++++++++++++++++++++++++++++........++++++++++++++++++++++++++++........      ",
"      ........++++++++++++++++++++++++++++++++++++++++++++++++++++++++++++++++........++++++++++++++++++++++++++++........      ",
"      ........++++++++++++++++++++++++++++++++++++++++++++++++++++++++++++++++........++++++++++++++++++++++++++++........      ",
"      ........++++++++++++++++++++++++++++++++++++++++++++++++++++++++++++++++........++++++++++++++++++++++++++++........      ",
"      ........++++++++++++++++++++++++++++++++++++++++++++++++++++++++++++++++........++++++++++++++++++++++++++++........      ",
"      ........++++++++++++++++++++++++++++++++++++++++++++++++++++++++++++++++........++++++++++++++++++++++++++++........      ",
"      ........++++++++++++++++++++++++++++++++++++++++++++++++++++++++++++++++........++++++++++++++++++++++++++++........      ",
"      ........++++++++++++++++++++++++++++++++++++++++++++++++++++++++++++++++........++++++++++++++++++++++++++++........      ",
"      ........++++++++++++++++++++++++++++++++++++++++++++++++++++++++++++++++........++++++++++++++++++++++++++++........      ",
"      ........++++++++++++++++++++++++++++++++++++++++++++++++++++++++++++++++........++++++++++++++++++++++++++++........      ",
"      ........++++++++++++++++++++++++++++++++++++++++++++++++++++++++++++++++........++++++++++++++++++++++++++++........      ",
"      ........++++++++++++++++++++++++++++++++++++++++++++++++++++++++++++++++........++++++++++++++++++++++++++++........      ",
"      ........++++++++++++++++++++++++++++++++++++++++++++++++++++++++++++++++........++++++++++++++++++++++++++++........      ",
"      ........++++++++++++++++++++++++++++++++++++++++++++++++++++++++++++++++........++++++++++++++++++++++++++++........      ",
"      ........++++++++++++++++++++++++++++++++++++++++++++++++++++++++++++++++........++++++++++++++++++++++++++++........      ",
"      ........++++++++++++++++++++++++++++++++++++++++++++++++++++++++++++++++........++++++++++++++++++++++++++++........      ",
"      ........++++++++++++++++++++++++++++++++++++++++++++++++++++++++++++++++........++++++++++++++++++++++++++++........      ",
"      ........++++++++++++++++++++++++++++++++++++++++++++++++++++++++++++++++........++++++++++++++++++++++++++++........      ",
"      ........++++++++++++++++++++++++++++++++++++++++++++++++++++++++++++++++........++++++++++++++++++++++++++++........      ",
"      ....................................................................................................................      ",
"      ....................................................................................................................      ",
"      ....................................................................................................................      ",
"      ....................................................................................................................      ",
"      ....................................................................................................................      ",
"      ....................................................................................................................      ",
"      ....................................................................................................................      ",
"      ....................................................................................................................      ",
"      ........++++++++++++++++++++++++++++........++++++++++++++++++++++++++++++++++++++++++++++++++++++++++++++++........      ",
"      ........++++++++++++++++++++++++++++........++++++++++++++++++++++++++++++++++++++++++++++++++++++++++++++++........      ",
"      ........++++++++++++++++++++++++++++........++++++++++++++++++++++++++++++++++++++++++++++++++++++++++++++++........      ",
"      ........++++++++++++++++++++++++++++........++++++++++++++++++++++++++++++++++++++++++++++++++++++++++++++++........      ",
"      ........++++++++++++++++++++++++++++........++++++++++++++++++++++++++++++++++++++++++++++++++++++++++++++++........      ",
"      ........++++++++++++++++++++++++++++........++++++++++++++++++++++++++++++++++++++++++++++++++++++++++++++++........      ",
"      ........++++++++++++++++++++++++++++........++++++++++++++++++++++++++++++++++++++++++++++++++++++++++++++++........      ",
"      ........++++++++++++++++++++++++++++........++++++++++++++++++++++++++++++++++++++++++++++++++++++++++++++++........      ",
"      ........++++++++++++++++++++++++++++........++++++++++++++++++++++++++++++++++++++++++++++++++++++++++++++++........      ",
"      ........++++++++++++++++++++++++++++........++++++++++++++++++++++++++++++++++++++++++++++++++++++++++++++++........      ",
"      ........++++++++++++++++++++++++++++........++++++++++++++++++++++++++++++++++++++++++++++++++++++++++++++++........      ",
"      ........++++++++++++++++++++++++++++........++++++++++++++++++++++++++++++++++++++++++++++++++++++++++++++++........      ",
"      ........++++++++++++++++++++++++++++........++++++++++++++++++++++++++++++++++++++++++++++++++++++++++++++++........      ",
"      ........++++++++++++++++++++++++++++........++++++++++++++++++++++++++++++++++++++++++++++++++++++++++++++++........      ",
"      ........++++++++++++++++++++++++++++........++++++++++++++++++++++++++++++++++++++++++++++++++++++++++++++++........      ",
"      ........++++++++++++++++++++++++++++........++++++++++++++++++++++++++++++++++++++++++++++++++++++++++++++++........      ",
"      ........++++++++++++++++++++++++++++........++++++++++++++++++++++++++++++++++++++++++++++++++++++++++++++++........      ",
"      ........++++++++++++++++++++++++++++........++++++++++++++++++++++++++++++++++++++++++++++++++++++++++++++++........      ",
"      ........++++++++++++++++++++++++++++........++++++++++++++++++++++++++++++++++++++++++++++++++++++++++++++++........      ",
"      ........++++++++++++++++++++++++++++........++++++++++++++++++++++++++++++++++++++++++++++++++++++++++++++++........      ",
"      ........++++++++++++++++++++++++++++........++++++++++++++++++++++++++++++++++++++++++++++++++++++++++++++++........      ",
"      ........++++++++++++++++++++++++++++........++++++++++++++++++++++++++++++++++++++++++++++++++++++++++++++++........      ",
"      ........++++++++++++++++++++++++++++........++++++++++++++++++++++++++++++++++++++++++++++++++++++++++++++++........      ",
"      ........++++++++++++++++++++++++++++........++++++++++++++++++++++++++++++++++++++++++++++++++++++++++++++++........      ",
"      ........++++++++++++++++++++++++++++........++++++++++++++++++++++++++++++++++++++++++++++++++++++++++++++++........      ",
"      ........++++++++++++++++++++++++++++........++++++++++++++++++++++++++++++++++++++++++++++++++++++++++++++++........      ",
"      ........++++++++++++++++++++++++++++........++++++++++++++++++++++++++++++++++++++++++++++++++++++++++++++++........      ",
"      ........++++++++++++++++++++++++++++........++++++++++++++++++++++++++++++++++++++++++++++++++++++++++++++++........      ",
"      ....................................................................................................................      ",
"      ....................................................................................................................      ",
"      ....................................................................................................................      ",
"      ....................................................................................................................      ",
"      ....................................................................................................................      ",
"      ....................................................................................................................      ",
"      ....................................................................................................................      ",
"      ....................................................................................................................      ",
"      ........++++++++++++++++++++++++++++++++++++++++++++++++++++++++++++++++........++++++++++++++++++++++++++++........      ",
"      ........++++++++++++++++++++++++++++++++++++++++++++++++++++++++++++++++........++++++++++++++++++++++++++++........      ",
"      ........++++++++++++++++++++++++++++++++++++++++++++++++++++++++++++++++........++++++++++++++++++++++++++++........      ",
"      ........++++++++++++++++++++++++++++++++++++++++++++++++++++++++++++++++........++++++++++++++++++++++++++++........      ",
"      ........++++++++++++++++++++++++++++++++++++++++++++++++++++++++++++++++........++++++++++++++++++++++++++++........      ",
"      ........++++++++++++++++++++++++++++++++++++++++++++++++++++++++++++++++........++++++++++++++++++++++++++++........      ",
"      ........++++++++++++++++++++++++++++++++++++++++++++++++++++++++++++++++........++++++++++++++++++++++++++++........      ",
"      ........++++++++++++++++++++++++++++++++++++++++++++++++++++++++++++++++........++++++++++++++++++++++++++++........      ",
"      ........++++++++++++++++++++++++++++++++++++++++++++++++++++++++++++++++........++++++++++++++++++++++++++++........      ",
"      ........++++++++++++++++++++++++++++++++++++++++++++++++++++++++++++++++........++++++++++++++++++++++++++++........      ",
"      ........++++++++++++++++++++++++++++++++++++++++++++++++++++++++++++++++........++++++++++++++++++++++++++++........      ",
"      ........++++++++++++++++++++++++++++++++++++++++++++++++++++++++++++++++........++++++++++++++++++++++++++++........      ",
"      ........++++++++++++++++++++++++++++++++++++++++++++++++++++++++++++++++........++++++++++++++++++++++++++++........      ",
"      ........++++++++++++++++++++++++++++++++++++++++++++++++++++++++++++++++........++++++++++++++++++++++++++++........      ",
"      ........++++++++++++++++++++++++++++++++++++++++++++++++++++++++++++++++........++++++++++++++++++++++++++++........      ",
"      ........++++++++++++++++++++++++++++++++++++++++++++++++++++++++++++++++........++++++++++++++++++++++++++++........      ",
"      ........++++++++++++++++++++++++++++++++++++++++++++++++++++++++++++++++........++++++++++++++++++++++++++++........      ",
"      ........++++++++++++++++++++++++++++++++++++++++++++++++++++++++++++++++........++++++++++++++++++++++++++++........      ",
"      ........++++++++++++++++++++++++++++++++++++++++++++++++++++++++++++++++........++++++++++++++++++++++++++++........      ",
"      ........++++++++++++++++++++++++++++++++++++++++++++++++++++++++++++++++........++++++++++++++++++++++++++++........      ",
"      ........++++++++++++++++++++++++++++++++++++++++++++++++++++++++++++++++........++++++++++++++++++++++++++++........      ",
"      ........++++++++++++++++++++++++++++++++++++++++++++++++++++++++++++++++........++++++++++++++++++++++++++++........      ",
"      ........++++++++++++++++++++++++++++++++++++++++++++++++++++++++++++++++........++++++++++++++++++++++++++++........      ",
"      ........++++++++++++++++++++++++++++++++++++++++++++++++++++++++++++++++........++++++++++++++++++++++++++++........      ",
"      ........++++++++++++++++++++++++++++++++++++++++++++++++++++++++++++++++........++++++++++++++++++++++++++++........      ",
"      ........++++++++++++++++++++++++++++++++++++++++++++++++++++++++++++++++........++++++++++++++++++++++++++++........      ",
"      ........++++++++++++++++++++++++++++++++++++++++++++++++++++++++++++++++........++++++++++++++++++++++++++++........      ",
"      ........++++++++++++++++++++++++++++++++++++++++++++++++++++++++++++++++........++++++++++++++++++++++++++++........      ",
"      ....................................................................................................................      ",
"      ....................................................................................................................      ",
"      ....................................................................................................................      ",
"      ....................................................................................................................      ",
"      ....................................................................................................................      ",
"      ....................................................................................................................      ",
"      ....................................................................................................................      ",
"      ....................................................................................................................      ",
"                                                                                                                                ",
"                                                                                                                                ",
"                                                                                                                                ",
"                                                                                                                                ",
"                                                                                                                                ",
"                                                                                                                                "};
