/* XPM */
static char * magacoin_main_64_xpm[] = {
"64 64 3 1",
" 	c None",
".	c #FFFFFF",
"+	c #DD0D0D",
"                                                                ",
"                                                                ",
"                                                                ",
"   ..........................................................   ",
"   ..........................................................   ",
"   ..........................................................   ",
"   ..........................................................   ",
"   ....++++++++++++++++++++++++++++++++....++++++++++++++....   ",
"   ....++++++++++++++++++++++++++++++++....++++++++++++++....   ",
"   ....++++++++++++++++++++++++++++++++....++++++++++++++....   ",
"   ....++++++++++++++++++++++++++++++++....++++++++++++++....   ",
"   ....++++++++++++++++++++++++++++++++....++++++++++++++....   ",
"   ....++++++++++++++++++++++++++++++++....++++++++++++++....   ",
"   ....++++++++++++++++++++++++++++++++....++++++++++++++....   ",
"   ....++++++++++++++++++++++++++++++++....++++++++++++++....   ",
"   ....++++++++++++++++++++++++++++++++....++++++++++++++....   ",
"   ....++++++++++++++++++++++++++++++++....++++++++++++++....   ",
"   ....++++++++++++++++++++++++++++++++....++++++++++++++....   ",
"   ....++++++++++++++++++++++++++++++++....++++++++++++++....   ",
"   ....++++++++++++++++++++++++++++++++....++++++++++++++....   ",
"   ....++++++++++++++++++++++++++++++++....++++++++++++++....   ",
"   ..........................................................   ",
"   ..........................................................   ",
"   ..........................................................   ",
"   ..........................................................   ",
"   ....++++++++++++++....++++++++++++++++++++++++++++++++....   ",
"   ....++++++++++++++....++++++++++++++++++++++++++++++++....   ",
"   ....++++++++++++++....++++++++++++++++++++++++++++++++....   ",
"   ....++++++++++++++....++++++++++++++++++++++++++++++++....   ",
"   ....++++++++++++++....++++++++++++++++++++++++++++++++....   ",
"   ....++++++++++++++....++++++++++++++++++++++++++++++++....   ",
"   ....++++++++++++++....++++++++++++++++++++++++++++++++....   ",
"   ....++++++++++++++....++++++++++++++++++++++++++++++++....   ",
"   ....++++++++++++++....++++++++++++++++++++++++++++++++....   ",
"   ....++++++++++++++....++++++++++++++++++++++++++++++++....   ",
"   ....++++++++++++++....++++++++++++++++++++++++++++++++....   ",
"   ....++++++++++++++....++++++++++++++++++++++++++++++++....   ",
"   ....++++++++++++++....++++++++++++++++++++++++++++++++....   ",
"   ....++++++++++++++....++++++++++++++++++++++++++++++++....   ",
"   ..........................................................   ",
"   ..........................................................   ",
"   ..........................................................   ",
"   ..........................................................   ",
"   ....++++++++++++++++++++++++++++++++....++++++++++++++....   ",
"   ....++++++++++++++++++++++++++++++++....++++++++++++++....   ",
"   ....++++++++++++++++++++++++++++++++....++++++++++++++....   ",
"   ....++++++++++++++++++++++++++++++++....++++++++++++++....   ",
"   ....++++++++++++++++++++++++++++++++....++++++++++++++....   ",
"   ....++++++++++++++++++++++++++++++++....++++++++++++++....   ",
"   ....++++++++++++++++++++++++++++++++....++++++++++++++....   ",
"   ....++++++++++++++++++++++++++++++++....++++++++++++++....   ",
"   ....++++++++++++++++++++++++++++++++....++++++++++++++....   ",
"   ....++++++++++++++++++++++++++++++++....++++++++++++++....   ",
"   ....++++++++++++++++++++++++++++++++....++++++++++++++....   ",
"   ....++++++++++++++++++++++++++++++++....++++++++++++++....   ",
"   ....++++++++++++++++++++++++++++++++....++++++++++++++....   ",
"   ....++++++++++++++++++++++++++++++++....++++++++++++++....   ",
"   ..........................................................   ",
"   ..........................................................   ",
"   ..........................................................   ",
"   ..........................................................   ",
"                                                                ",
"                                                                ",
"                                                                "};
