/* XPM */
static char * magacoin_main_16_xpm[] = {
"16 16 7 1",
" 	c None",
".	c #FDF0F0",
"+	c #F6C2C2",
"@	c #F9D1D1",
"#	c #DD0D0D",
"$	c #E54949",
"%	c #EC7676",
"                ",
" .+++++++@.+++. ",
" +#######$+###+ ",
" +#######$+###+ ",
" +#######$+###+ ",
" .+++++++@.+++. ",
" @$$$@%$$$$$$$@ ",
" +###+$#######+ ",
" +###+$#######+ ",
" @$$$@%$$$$$$$@ ",
" .+++++++@.+++. ",
" +#######$+###+ ",
" +#######$+###+ ",
" +#######$+###+ ",
" .+++++++@.+++. ",
"                "};
