/* XPM */
static char * magacoin_main_32_xpm[] = {
"32 32 5 1",
" 	c None",
".	c #FFFFFF",
"+	c #F6C2C2",
"@	c #EE8686",
"#	c #DD0D0D",
"                                ",
"  ............................  ",
" .............................. ",
" ..+@@@@@@@@@@@@@@@+.+@@@@@@+.. ",
" ..@###############@.@######@.. ",
" ..@###############@.@######@.. ",
" ..@###############@.@######@.. ",
" ..@###############@.@######@.. ",
" ..@###############@.@######@.. ",
" ..@###############@.@######@.. ",
" ..+@@@@@@@@@@@@@@@+.+@@@@@@+.. ",
" .............................. ",
" ..+@@@@@@+.+@@@@@@@@@@@@@@@+.. ",
" ..@######@.@###############@.. ",
" ..@######@.@###############@.. ",
" ..@######@.@###############@.. ",
" ..@######@.@###############@.. ",
" ..@######@.@###############@.. ",
" ..@######@.@###############@.. ",
" ..+@@@@@@+.+@@@@@@@@@@@@@@@+.. ",
" .............................. ",
" ..+@@@@@@@@@@@@@@@+.+@@@@@@+.. ",
" ..@###############@.@######@.. ",
" ..@###############@.@######@.. ",
" ..@###############@.@######@.. ",
" ..@###############@.@######@.. ",
" ..@###############@.@######@.. ",
" ..@###############@.@######@.. ",
" ..+@@@@@@@@@@@@@@@+.+@@@@@@+.. ",
" .............................. ",
"  ............................  ",
"                                "};
